<mxfile host="app.diagrams.net" modified="2024-04-04T17:35:25.868Z" agent="Mozilla/5.0 (Windows NT 10.0; Win64; x64) AppleWebKit/537.36 (KHTML, like Gecko) Chrome/123.0.0.0 Safari/537.36 Edg/123.0.0.0" etag="d4YFGnpGQK1vX0It4GEl" version="24.2.2" type="github">
  <diagram name="Страница — 1" id="502B-_kw1vN6G0MiNI7r">
    <mxGraphModel dx="872" dy="481" grid="1" gridSize="10" guides="1" tooltips="1" connect="1" arrows="1" fold="1" page="1" pageScale="1" pageWidth="827" pageHeight="1169" math="0" shadow="0">
      <root>
        <mxCell id="0" />
        <mxCell id="1" parent="0" />
        <mxCell id="poFuWDEIFJVg8fxHqKOv-1" value="&lt;span dir=&quot;ltr&quot; class=&quot;ui-provider a b c d e f g h i j k l m n o p q r s t u v w x y z ab ac ae af ag ah ai aj ak&quot;&gt;Entities&lt;/span&gt;" style="rounded=1;whiteSpace=wrap;html=1;" vertex="1" parent="1">
          <mxGeometry x="290" y="60" width="120" height="60" as="geometry" />
        </mxCell>
        <mxCell id="poFuWDEIFJVg8fxHqKOv-3" style="edgeStyle=orthogonalEdgeStyle;rounded=0;orthogonalLoop=1;jettySize=auto;html=1;entryX=0.417;entryY=-0.033;entryDx=0;entryDy=0;entryPerimeter=0;" edge="1" parent="1" source="poFuWDEIFJVg8fxHqKOv-1">
          <mxGeometry relative="1" as="geometry">
            <mxPoint x="220.03999999999996" y="188.01999999999998" as="targetPoint" />
          </mxGeometry>
        </mxCell>
        <mxCell id="poFuWDEIFJVg8fxHqKOv-9" value="Animals" style="swimlane;whiteSpace=wrap;html=1;" vertex="1" parent="1">
          <mxGeometry x="120" y="190" width="200" height="710" as="geometry" />
        </mxCell>
        <mxCell id="poFuWDEIFJVg8fxHqKOv-10" value="id" style="rounded=1;whiteSpace=wrap;html=1;" vertex="1" parent="poFuWDEIFJVg8fxHqKOv-9">
          <mxGeometry y="20" width="200" height="30" as="geometry" />
        </mxCell>
        <mxCell id="poFuWDEIFJVg8fxHqKOv-11" value="name" style="rounded=1;whiteSpace=wrap;html=1;" vertex="1" parent="poFuWDEIFJVg8fxHqKOv-9">
          <mxGeometry y="50" width="200" height="30" as="geometry" />
        </mxCell>
        <mxCell id="poFuWDEIFJVg8fxHqKOv-12" value="ВИд" style="rounded=1;whiteSpace=wrap;html=1;" vertex="1" parent="poFuWDEIFJVg8fxHqKOv-9">
          <mxGeometry y="80" width="200" height="30" as="geometry" />
        </mxCell>
        <mxCell id="poFuWDEIFJVg8fxHqKOv-13" value="age" style="rounded=1;whiteSpace=wrap;html=1;" vertex="1" parent="poFuWDEIFJVg8fxHqKOv-9">
          <mxGeometry y="110" width="200" height="30" as="geometry" />
        </mxCell>
        <mxCell id="poFuWDEIFJVg8fxHqKOv-14" value="Стать" style="rounded=1;whiteSpace=wrap;html=1;" vertex="1" parent="poFuWDEIFJVg8fxHqKOv-9">
          <mxGeometry y="140" width="200" height="30" as="geometry" />
        </mxCell>
        <mxCell id="poFuWDEIFJVg8fxHqKOv-15" value="Description" style="rounded=1;whiteSpace=wrap;html=1;" vertex="1" parent="poFuWDEIFJVg8fxHqKOv-9">
          <mxGeometry y="170" width="200" height="30" as="geometry" />
        </mxCell>
        <mxCell id="poFuWDEIFJVg8fxHqKOv-16" value="&lt;span dir=&quot;ltr&quot; class=&quot;ui-provider a b c d e f g h i j k l m n o p q r s t u v w x y z ab ac ae af ag ah ai aj ak&quot;&gt;Ідентифікатор посади&lt;/span&gt;" style="rounded=1;whiteSpace=wrap;html=1;" vertex="1" parent="poFuWDEIFJVg8fxHqKOv-9">
          <mxGeometry y="200" width="200" height="30" as="geometry" />
        </mxCell>
        <mxCell id="poFuWDEIFJVg8fxHqKOv-17" value="&lt;span dir=&quot;ltr&quot; class=&quot;ui-provider a b c d e f g h i j k l m n o p q r s t u v w x y z ab ac ae af ag ah ai aj ak&quot;&gt;Назва посади&lt;/span&gt;" style="rounded=1;whiteSpace=wrap;html=1;" vertex="1" parent="poFuWDEIFJVg8fxHqKOv-9">
          <mxGeometry y="230" width="200" height="30" as="geometry" />
        </mxCell>
        <mxCell id="poFuWDEIFJVg8fxHqKOv-18" value="&lt;span dir=&quot;ltr&quot; class=&quot;ui-provider a b c d e f g h i j k l m n o p q r s t u v w x y z ab ac ae af ag ah ai aj ak&quot;&gt;Опис посади&lt;/span&gt;" style="rounded=1;whiteSpace=wrap;html=1;" vertex="1" parent="poFuWDEIFJVg8fxHqKOv-9">
          <mxGeometry y="260" width="200" height="30" as="geometry" />
        </mxCell>
        <mxCell id="poFuWDEIFJVg8fxHqKOv-19" value="&lt;span dir=&quot;ltr&quot; class=&quot;ui-provider a b c d e f g h i j k l m n o p q r s t u v w x y z ab ac ae af ag ah ai aj ak&quot;&gt;Опис посади&lt;/span&gt;" style="rounded=1;whiteSpace=wrap;html=1;" vertex="1" parent="poFuWDEIFJVg8fxHqKOv-9">
          <mxGeometry y="290" width="200" height="30" as="geometry" />
        </mxCell>
        <mxCell id="poFuWDEIFJVg8fxHqKOv-20" value="&lt;span dir=&quot;ltr&quot; class=&quot;ui-provider a b c d e f g h i j k l m n o p q r s t u v w x y z ab ac ae af ag ah ai aj ak&quot;&gt;Оплата&lt;/span&gt;" style="rounded=1;whiteSpace=wrap;html=1;" vertex="1" parent="poFuWDEIFJVg8fxHqKOv-9">
          <mxGeometry y="320" width="200" height="30" as="geometry" />
        </mxCell>
        <mxCell id="poFuWDEIFJVg8fxHqKOv-21" value="&lt;span dir=&quot;ltr&quot; class=&quot;ui-provider a b c d e f g h i j k l m n o p q r s t u v w x y z ab ac ae af ag ah ai aj ak&quot;&gt;Ідентифікатор працівника&lt;/span&gt;" style="rounded=1;whiteSpace=wrap;html=1;" vertex="1" parent="poFuWDEIFJVg8fxHqKOv-9">
          <mxGeometry y="350" width="200" height="30" as="geometry" />
        </mxCell>
        <mxCell id="poFuWDEIFJVg8fxHqKOv-22" value="&lt;span dir=&quot;ltr&quot; class=&quot;ui-provider a b c d e f g h i j k l m n o p q r s t u v w x y z ab ac ae af ag ah ai aj ak&quot;&gt;Прізвище&lt;/span&gt;" style="rounded=1;whiteSpace=wrap;html=1;" vertex="1" parent="poFuWDEIFJVg8fxHqKOv-9">
          <mxGeometry y="380" width="200" height="30" as="geometry" />
        </mxCell>
        <mxCell id="poFuWDEIFJVg8fxHqKOv-23" value="&lt;span dir=&quot;ltr&quot; class=&quot;ui-provider a b c d e f g h i j k l m n o p q r s t u v w x y z ab ac ae af ag ah ai aj ak&quot;&gt;Ім&#39;я&lt;/span&gt;" style="rounded=1;whiteSpace=wrap;html=1;" vertex="1" parent="poFuWDEIFJVg8fxHqKOv-9">
          <mxGeometry y="410" width="200" height="30" as="geometry" />
        </mxCell>
        <mxCell id="poFuWDEIFJVg8fxHqKOv-24" value="&lt;span dir=&quot;ltr&quot; class=&quot;ui-provider a b c d e f g h i j k l m n o p q r s t u v w x y z ab ac ae af ag ah ai aj ak&quot;&gt;Зарплата&lt;/span&gt;" style="rounded=1;whiteSpace=wrap;html=1;" vertex="1" parent="poFuWDEIFJVg8fxHqKOv-9">
          <mxGeometry y="440" width="200" height="30" as="geometry" />
        </mxCell>
        <mxCell id="poFuWDEIFJVg8fxHqKOv-25" value="&lt;span dir=&quot;ltr&quot; class=&quot;ui-provider a b c d e f g h i j k l m n o p q r s t u v w x y z ab ac ae af ag ah ai aj ak&quot;&gt;Відділ/Сектор&lt;/span&gt;" style="rounded=1;whiteSpace=wrap;html=1;" vertex="1" parent="poFuWDEIFJVg8fxHqKOv-9">
          <mxGeometry y="470" width="200" height="30" as="geometry" />
        </mxCell>
        <mxCell id="poFuWDEIFJVg8fxHqKOv-26" value="&lt;span dir=&quot;ltr&quot; class=&quot;ui-provider a b c d e f g h i j k l m n o p q r s t u v w x y z ab ac ae af ag ah ai aj ak&quot;&gt;Ідентифікатор вольєру&lt;/span&gt;" style="rounded=1;whiteSpace=wrap;html=1;" vertex="1" parent="poFuWDEIFJVg8fxHqKOv-9">
          <mxGeometry y="500" width="200" height="30" as="geometry" />
        </mxCell>
        <mxCell id="poFuWDEIFJVg8fxHqKOv-27" value="&lt;span dir=&quot;ltr&quot; class=&quot;ui-provider a b c d e f g h i j k l m n o p q r s t u v w x y z ab ac ae af ag ah ai aj ak&quot;&gt;Назва&lt;/span&gt;" style="rounded=1;whiteSpace=wrap;html=1;" vertex="1" parent="poFuWDEIFJVg8fxHqKOv-9">
          <mxGeometry y="530" width="200" height="30" as="geometry" />
        </mxCell>
        <mxCell id="poFuWDEIFJVg8fxHqKOv-39" value="&lt;span dir=&quot;ltr&quot; class=&quot;ui-provider a b c d e f g h i j k l m n o p q r s t u v w x y z ab ac ae af ag ah ai aj ak&quot;&gt;Розмір&lt;/span&gt;" style="rounded=1;whiteSpace=wrap;html=1;" vertex="1" parent="poFuWDEIFJVg8fxHqKOv-9">
          <mxGeometry y="560" width="200" height="30" as="geometry" />
        </mxCell>
        <mxCell id="poFuWDEIFJVg8fxHqKOv-40" value="&lt;span dir=&quot;ltr&quot; class=&quot;ui-provider a b c d e f g h i j k l m n o p q r s t u v w x y z ab ac ae af ag ah ai aj ak&quot;&gt;Місцезнаходження&lt;/span&gt;" style="rounded=1;whiteSpace=wrap;html=1;" vertex="1" parent="poFuWDEIFJVg8fxHqKOv-9">
          <mxGeometry y="590" width="200" height="30" as="geometry" />
        </mxCell>
        <mxCell id="poFuWDEIFJVg8fxHqKOv-41" value="&lt;span dir=&quot;ltr&quot; class=&quot;ui-provider a b c d e f g h i j k l m n o p q r s t u v w x y z ab ac ae af ag ah ai aj ak&quot;&gt;Ідентифікатор відвідувача&lt;/span&gt;" style="rounded=1;whiteSpace=wrap;html=1;" vertex="1" parent="poFuWDEIFJVg8fxHqKOv-9">
          <mxGeometry y="620" width="200" height="30" as="geometry" />
        </mxCell>
        <mxCell id="poFuWDEIFJVg8fxHqKOv-42" value="&lt;span dir=&quot;ltr&quot; class=&quot;ui-provider a b c d e f g h i j k l m n o p q r s t u v w x y z ab ac ae af ag ah ai aj ak&quot;&gt;Дата&amp;nbsp;&lt;/span&gt;&lt;span dir=&quot;ltr&quot; class=&quot;ui-provider a b c d e f g h i j k l m n o p q r s t u v w x y z ab ac ae af ag ah ai aj ak&quot;&gt;народження&lt;/span&gt;" style="rounded=1;whiteSpace=wrap;html=1;" vertex="1" parent="poFuWDEIFJVg8fxHqKOv-9">
          <mxGeometry y="650" width="200" height="30" as="geometry" />
        </mxCell>
        <mxCell id="poFuWDEIFJVg8fxHqKOv-43" value="&lt;span dir=&quot;ltr&quot; class=&quot;ui-provider a b c d e f g h i j k l m n o p q r s t u v w x y z ab ac ae af ag ah ai aj ak&quot;&gt;Контактна інформація&lt;/span&gt;" style="rounded=1;whiteSpace=wrap;html=1;" vertex="1" parent="poFuWDEIFJVg8fxHqKOv-9">
          <mxGeometry y="680" width="200" height="30" as="geometry" />
        </mxCell>
      </root>
    </mxGraphModel>
  </diagram>
</mxfile>
